<svg xmlns="http://www.w3.org/2000/svg" viewBox="0 0 512 512" width="512" height="512">
  <defs>
    <linearGradient id="bgGrad" x1="0%" y1="0%" x2="100%" y2="100%">
      <stop offset="0%" stop-color="#060813"/>
      <stop offset="100%" stop-color="#0b1120"/>
    </linearGradient>
    <linearGradient id="shieldGrad" x1="0%" y1="0%" x2="100%" y2="100%">
      <stop offset="0%" stop-color="#00f2fe"/>
      <stop offset="100%" stop-color="#4facfe"/>
    </linearGradient>
    <linearGradient id="accentGrad" x1="0%" y1="0%" x2="100%" y2="100%">
      <stop offset="0%" stop-color="#10b981"/>
      <stop offset="100%" stop-color="#00f2fe"/>
    </linearGradient>
  </defs>
  <rect width="512" height="512" rx="128" fill="url(#bgGrad)"/>
  <rect x="16" y="16" width="480" height="480" rx="112" fill="none" stroke="url(#shieldGrad)" stroke-width="8" opacity="0.4"/>
  <path d="M256 80 L384 144 V264 C384 352 328 416 256 448 C184 416 128 352 128 264 V144 L256 80 Z" fill="none" stroke="url(#shieldGrad)" stroke-width="24" stroke-linejoin="round"/>
  <path d="M256 120 L352 168 V260 C352 330 308 382 256 408 C204 382 160 330 160 260 V168 L256 120 Z" fill="url(#shieldGrad)" opacity="0.2"/>
  <path d="M220 256 L244 280 L296 220" fill="none" stroke="url(#accentGrad)" stroke-width="24" stroke-linecap="round" stroke-linejoin="round"/>
</svg>
